<svg width="1440" height="4821" viewBox="0 0 1440 4821" fill="none" xmlns="http://www.w3.org/2000/svg">
<path fill-rule="evenodd" clip-rule="evenodd" d="M1041.57 301C1039.72 300.998 1037.86 300.986 1036 300.964L1036 301H199C88.5431 301 -1 390.543 -1 501V4320C-1 4430.46 88.543 4520 199 4520H1042.5V4520.04C1044.41 4520.01 1046.31 4520 1048.21 4520H1049.14C1311.07 4520.24 1416.2 4720.64 1440 4821V4520L1440 4440L1440 381V301V0C1416.2 100.342 1304.72 300.692 1042.78 301C1042.37 301 1041.97 301 1041.57 301Z" fill="#4053A4"/>
</svg>
