<svg width="138" height="29" viewBox="0 0 138 29" fill="none" xmlns="http://www.w3.org/2000/svg">
<path d="M12.2988 4.87334C11.6537 4.31953 10.9747 3.90295 10.2568 3.6285C9.53897 3.34914 8.78716 3.21191 7.99656 3.21191C6.46386 3.21191 5.22218 3.70691 4.26182 4.7018C3.30146 5.69179 2.82127 6.98074 2.82127 8.55884C2.82127 10.0879 3.2869 11.3475 4.22301 12.3375C5.15912 13.3275 6.3329 13.8273 7.7589 13.8273C8.5883 13.8273 9.37891 13.6803 10.1259 13.3814C10.8728 13.0873 11.5955 12.6364 12.2843 12.0385V14.6409C11.6731 15.0869 11.0038 15.4153 10.2859 15.6358C9.56322 15.8563 8.78232 15.9642 7.94321 15.9642C6.87129 15.9642 5.88183 15.7877 4.97482 15.4349C4.06781 15.082 3.2675 14.5576 2.57876 13.8666C1.89486 13.1902 1.37103 12.3914 1.00726 11.4749C0.638632 10.5584 0.459167 9.57825 0.459167 8.53925C0.459167 7.50025 0.643482 6.52986 1.00726 5.61339C1.37588 4.70181 1.90457 3.90295 2.59816 3.21191C3.29176 2.51598 4.09206 1.99159 4.98937 1.63382C5.88668 1.27606 6.8616 1.09961 7.90442 1.09961C8.72897 1.09961 9.50986 1.22214 10.2568 1.46229C11.0038 1.70244 11.7265 2.07 12.4298 2.56009L12.2988 4.87334Z" fill="#4053A4"/>
<path d="M15.1216 15.5826V1.43359H17.3964V6.65309H24.2839V1.43359H26.5587V15.5826H24.2839V8.71148H17.3964V15.5826H15.1216Z" fill="#4053A4"/>
<path d="M31.9085 9.25645V15.5885H29.7744V1.43945H32.9513C33.8826 1.43945 34.6053 1.50316 35.1194 1.62079C35.6335 1.74331 36.0701 1.94426 36.4338 2.22851C36.8655 2.57158 37.2002 3.01265 37.4379 3.55176C37.6755 4.09086 37.7919 4.68388 37.7919 5.3308C37.7919 6.46292 37.5203 7.34998 36.9771 7.992C36.4338 8.63403 35.6335 9.01631 34.5762 9.14863L39.3974 15.5836H36.8267L32.1704 9.25155H31.9085V9.25645ZM32.054 7.46762H32.4663C33.6692 7.46762 34.4695 7.32549 34.8672 7.04124C35.2601 6.75698 35.4589 6.25708 35.4589 5.53174C35.4589 4.75249 35.2455 4.20359 34.8235 3.88503C34.4016 3.56647 33.6158 3.40473 32.4663 3.40473H32.054V7.46762Z" fill="#4053A4"/>
<path d="M40.7847 15.5826V1.43359H43.0595V15.5826H40.7847Z" fill="#4053A4"/>
<path d="M45.5281 12.7559L47.347 11.9032C47.5168 12.5354 47.8369 13.0157 48.2928 13.3489C48.7536 13.6822 49.3405 13.8488 50.0535 13.8488C50.7277 13.8488 51.2661 13.6577 51.6638 13.2803C52.0615 12.898 52.2604 12.3933 52.2604 11.7512C52.2604 10.9181 51.5765 10.178 50.2136 9.5262C50.0244 9.42818 49.874 9.35957 49.7722 9.31546C48.2298 8.55582 47.2015 7.86969 46.6874 7.25217C46.1732 6.63465 45.9162 5.88481 45.9162 4.99774C45.9162 3.84602 46.3042 2.90994 47.0802 2.1944C47.8563 1.47886 48.87 1.12109 50.1263 1.12109C51.1594 1.12109 52.0227 1.32204 52.7163 1.72391C53.4099 2.12579 53.895 2.70409 54.1617 3.45884L52.3817 4.38512C52.1003 3.93914 51.7948 3.61568 51.4601 3.40984C51.1254 3.204 50.7422 3.10108 50.3057 3.10108C49.6946 3.10108 49.2095 3.2628 48.8458 3.58627C48.4868 3.90973 48.3074 4.34102 48.3074 4.88012C48.3074 5.73288 49.098 6.52192 50.6792 7.25706C50.8004 7.31587 50.8975 7.36 50.9654 7.3943C52.3477 8.03633 53.2984 8.66854 53.8173 9.28606C54.3363 9.90358 54.5934 10.6681 54.5934 11.5895C54.5934 12.9275 54.1763 13.9959 53.342 14.7849C52.5078 15.574 51.3776 15.9709 49.9565 15.9709C48.7633 15.9709 47.7884 15.6916 47.0269 15.1378C46.2654 14.5791 45.7658 13.7851 45.5281 12.7559Z" fill="#4053A4"/>
<path d="M61.6074 3.39003V15.5885H59.3326V3.39003H55.6124V1.43945H65.313V3.39003H61.6074Z" fill="#4053A4"/>
<path d="M72.962 15.5826V1.43359H80.7759V3.38416H75.2368V6.91284H80.7759V8.93202H75.2368V15.5826H72.962Z" fill="#4053A4"/>
<path d="M92.4941 15.5837L90.9081 11.9423H85.3593L83.7344 15.5837H81.3432L88.124 0.871094L94.895 15.5837H92.4941ZM86.2032 10.0261H90.1077L88.672 6.79634C88.5896 6.5905 88.5023 6.35525 88.415 6.0857C88.3277 5.81615 88.2355 5.52209 88.1482 5.19373C88.0706 5.50248 87.9882 5.79164 87.9057 6.05629C87.8184 6.32585 87.7311 6.5709 87.6438 6.79634L86.2032 10.0261Z" fill="#4053A4"/>
<path d="M107.637 8.59902C107.613 8.4912 107.569 8.18734 107.511 7.69235C107.462 7.28067 107.414 6.9376 107.375 6.66805C107.317 6.99151 107.234 7.31008 107.132 7.63354C107.026 7.957 106.895 8.28537 106.735 8.61863L103.073 16.1563L99.4107 8.4618C99.2554 8.14814 99.1245 7.83938 99.0129 7.54532C98.9014 7.25127 98.8044 6.95721 98.7219 6.66805C98.7171 6.96211 98.6928 7.27577 98.6492 7.59923C98.6055 7.92269 98.5473 8.26576 98.4648 8.61863L96.9612 15.5878H94.8659L98.1738 0.840828L102.306 9.77034C102.369 9.91247 102.466 10.1477 102.597 10.4761C102.728 10.8044 102.883 11.2112 103.073 11.6915C103.208 11.2847 103.417 10.7701 103.703 10.1428C103.781 9.97618 103.839 9.84876 103.873 9.75564L107.908 0.835938L111.294 15.5829H109.179L107.637 8.59902Z" fill="#4053A4"/>
<path d="M113.156 15.5826V1.43359H115.431V15.5826H113.156Z" fill="#4053A4"/>
<path d="M118.705 15.5826V1.43359H120.98V13.5242H126.068V15.5826H118.705Z" fill="#4053A4"/>
<path d="M130.928 15.5826V9.10847L126.214 1.43359H128.605L131.539 6.23651C131.607 6.35903 131.699 6.52076 131.801 6.7217C131.908 6.92263 132.015 7.13828 132.121 7.36862C132.209 7.14318 132.306 6.93245 132.403 6.73151C132.5 6.53057 132.606 6.34924 132.713 6.1826L135.725 1.43848H138L133.179 9.11336V15.5875H130.928V15.5826Z" fill="#4053A4"/>
<path d="M27.5097 23.5079C27.4951 23.4393 27.4708 23.2531 27.432 22.9492C27.4029 22.6944 27.3738 22.4836 27.3496 22.317C27.3156 22.5179 27.2623 22.714 27.1992 22.91C27.1362 23.1109 27.0537 23.3119 26.9567 23.5177L24.7013 28.1638L22.4459 23.4246C22.3538 23.2286 22.2713 23.0423 22.2034 22.861C22.1355 22.6797 22.0724 22.4983 22.0239 22.317C22.0191 22.4983 22.0045 22.6895 21.9803 22.8904C21.956 23.0913 21.9172 23.3021 21.8639 23.5177L20.9375 27.8109H19.6473L21.6844 18.7246L24.2308 24.2235C24.2696 24.3117 24.3278 24.4538 24.4103 24.6596C24.4928 24.8606 24.5898 25.1105 24.7013 25.4095C24.7838 25.1595 24.9147 24.841 25.0893 24.4587C25.1378 24.3558 25.1718 24.2774 25.1961 24.2186L27.6843 18.7246L29.7699 27.8109H28.47L27.5097 23.5079Z" fill="#4053A4"/>
<path d="M37.4287 27.8115V19.0977H38.8304V27.8115H37.4287Z" fill="#4053A4"/>
<path d="M47.362 27.8099V18.748L52.8429 24.0754C52.9932 24.2273 53.1436 24.389 53.2988 24.5557C53.454 24.7272 53.6141 24.9183 53.7838 25.134V19.0911H55.0789V28.148L49.4864 22.7227C49.3361 22.5757 49.1906 22.4189 49.0548 22.2571C48.9141 22.0954 48.7832 21.9239 48.657 21.7474V27.8099H47.362Z" fill="#4053A4"/>
<path d="M63.5913 27.8115V19.0977H64.993V27.8115H63.5913Z" fill="#4053A4"/>
<path d="M73.0302 26.0656L74.1506 25.5412C74.2573 25.9283 74.4513 26.2273 74.7326 26.4331C75.0139 26.639 75.3777 26.7419 75.8191 26.7419C76.2362 26.7419 76.566 26.6243 76.8134 26.389C77.0608 26.1538 77.182 25.8401 77.182 25.4481C77.182 24.9335 76.76 24.4777 75.9209 24.0807C75.8045 24.0219 75.7124 23.9778 75.6493 23.9484C74.6987 23.4779 74.0633 23.0564 73.748 22.679C73.4327 22.3016 73.2727 21.8361 73.2727 21.2871C73.2727 20.5765 73.5103 20.0031 73.9905 19.562C74.4659 19.1209 75.0915 18.9004 75.8676 18.9004C76.503 18.9004 77.0365 19.0229 77.4633 19.2729C77.8902 19.5228 78.186 19.8757 78.351 20.3413L77.2548 20.9147C77.0802 20.6402 76.891 20.4393 76.6873 20.3119C76.4836 20.1844 76.2459 20.1207 75.9791 20.1207C75.6008 20.1207 75.305 20.2187 75.0818 20.4197C74.8587 20.6206 74.7472 20.8853 74.7472 21.2185C74.7472 21.7429 75.2322 22.233 76.2071 22.6839C76.2799 22.7182 76.3381 22.7476 76.3817 22.7672C77.2354 23.1642 77.8174 23.5514 78.1375 23.9337C78.4577 24.311 78.6129 24.7864 78.6129 25.3549C78.6129 26.1783 78.3558 26.835 77.8417 27.3202C77.3275 27.8054 76.6339 28.0504 75.756 28.0504C75.0236 28.0504 74.4173 27.8789 73.9517 27.5358C73.4861 27.1879 73.1757 26.7027 73.0302 26.0656Z" fill="#4053A4"/>
<path d="M89.453 20.2984V27.8115H88.0513V20.2984H85.7571V19.0977H91.7327V20.2984H89.453Z" fill="#4053A4"/>
<path d="M100.633 23.9104V27.8115H99.3188V19.0977H101.274C101.846 19.0977 102.292 19.1369 102.607 19.2104C102.923 19.2839 103.194 19.4113 103.417 19.5878C103.684 19.7985 103.893 20.068 104.038 20.4013C104.184 20.7346 104.256 21.1022 104.256 21.4991C104.256 22.2 104.092 22.744 103.757 23.1409C103.422 23.5379 102.932 23.7732 102.278 23.8516L105.246 27.8164H103.66L100.789 23.9153H100.633V23.9104ZM100.725 22.8077H100.978C101.72 22.8077 102.214 22.7195 102.457 22.5479C102.7 22.3715 102.821 22.0627 102.821 21.6167C102.821 21.1365 102.69 20.7983 102.428 20.6022C102.166 20.4062 101.681 20.3082 100.978 20.3082H100.725V22.8077Z" fill="#4053A4"/>
<path d="M114.452 27.8106V23.8212L111.547 19.0918H113.021L114.83 22.052C114.874 22.1255 114.927 22.2284 114.99 22.3509C115.054 22.4734 115.121 22.6058 115.189 22.7479C115.243 22.6107 115.301 22.4783 115.364 22.3558C115.427 22.2333 115.49 22.1206 115.553 22.0177L117.411 19.0967H118.813L115.844 23.8261V27.8155H114.452V27.8106Z" fill="#4053A4"/>
</svg>
