<svg width="49" height="47" viewBox="0 0 49 47" fill="none" xmlns="http://www.w3.org/2000/svg">
<path fill-rule="evenodd" clip-rule="evenodd" d="M24.0964 0.769444C36.9692 0.769444 47.4022 10.9487 47.4022 23.5C47.4022 36.0562 36.9692 46.2305 24.0964 46.2305C11.2237 46.2305 0.790605 36.0562 0.790605 23.5C0.790605 10.9438 11.2237 0.769444 24.0964 0.769444ZM24.0964 0C37.4057 0 48.1928 10.5223 48.1928 23.5C48.1928 36.4777 37.4057 47 24.0964 47C10.7871 47 0 36.4777 0 23.5C0 10.5223 10.792 0 24.0964 0Z" fill="white"/>
<path fill-rule="evenodd" clip-rule="evenodd" d="M28.3842 27.5447C29.2282 27.2849 30.0042 27.0007 30.6833 26.687C29.9751 27.0742 29.1991 27.4172 28.3697 27.7162C28.3745 27.6623 28.3794 27.6035 28.3842 27.5447ZM10.3944 21.541C6.12607 24.7364 10.9182 27.0987 13.9205 27.9759C17.18 28.9267 21.002 28.9463 24.4021 28.4366C24.3924 28.5395 24.3827 28.6376 24.373 28.7405C20.6867 29.3482 16.6367 29.2208 13.3385 28.2798C10.1179 27.3584 5.30637 24.6727 10.3944 21.541Z" fill="#4053A4"/>
<path fill-rule="evenodd" clip-rule="evenodd" d="M27.293 33.9445C28.5881 33.5819 29.8492 33.1212 31.0569 32.5723C29.8734 33.2192 28.5832 33.7436 27.2445 34.1504L27.293 33.9445ZM11.7138 28.0781C9.3808 29.8229 9.69122 31.2343 10.9378 32.2929C12.7712 33.8514 15.5116 34.5768 18.1356 34.8169C19.9109 34.9786 21.72 34.9394 23.5146 34.714L23.4662 34.9737C21.0022 35.3119 18.4897 35.2923 16.1664 34.9198C14.1535 34.5964 12.2376 33.9445 10.7825 32.7781C9.25469 31.5578 8.79391 29.8768 11.7138 28.0781Z" fill="#4053A4"/>
<path fill-rule="evenodd" clip-rule="evenodd" d="M28.491 22.1432C29.0488 21.9619 29.5629 21.761 30.0237 21.5502C29.5484 21.81 29.0391 22.0452 28.5007 22.256L28.491 22.1432ZM12.9505 17.2129C9.3613 19.8986 13.3919 21.8884 15.9189 22.6235C18.6254 23.4175 21.7975 23.4371 24.6301 23.0303C24.6301 23.1136 24.635 23.1969 24.635 23.2852C21.555 23.7851 18.1792 23.6674 15.4242 22.8833C12.7226 22.1089 8.6677 19.8496 12.9505 17.2129Z" fill="#4053A4"/>
<path fill-rule="evenodd" clip-rule="evenodd" d="M26.0609 38.2558C26.1094 38.246 26.1579 38.2362 26.2016 38.2313C26.1531 38.246 26.1046 38.2558 26.0561 38.2656L26.0609 38.2558ZM19.4742 14.7852C14.2455 16.3731 10.4623 20.9407 10.4623 26.3318C10.4623 32.801 15.9092 38.0891 22.7675 38.4567L22.7287 38.6478C15.5405 38.6135 9.72015 33.1098 9.72015 26.3318C9.72015 22.0582 12.0338 18.2942 15.5405 16.0839L15.7297 15.9957C16.9423 15.4321 18.1937 15.0302 19.4742 14.7852Z" fill="#4053A4"/>
<path fill-rule="evenodd" clip-rule="evenodd" d="M26.3324 14.9334C28.7528 22.7357 27.7584 30.8713 24.7464 39.4234L23.1409 40.6878C25.8862 28.5727 26.119 21.4369 24.339 14.5707C25.0083 14.6491 25.6728 14.7717 26.3324 14.9334ZM20.7352 4.42578C22.4861 6.68021 23.8685 8.95915 24.9307 11.2675C24.3729 11.1646 23.8151 11.0911 23.2573 11.042C22.5201 8.96405 21.6082 6.83705 20.5363 4.53851L20.7352 4.42578Z" fill="#4053A4"/>
<path fill-rule="evenodd" clip-rule="evenodd" d="M24.14 41.6973C28.2676 37.6491 30.5327 35.5907 36.5665 37.1296V34.7527C29.9653 33.7137 27.186 36.615 24.14 41.6973Z" fill="#4053A4"/>
<path fill-rule="evenodd" clip-rule="evenodd" d="M24.7996 39.3607C29.4947 32.9307 32.5698 31.2301 40.0199 31.4408V20.3794C35.5043 19.9677 30.848 21.1488 27.8311 24.5011C30.6055 22.8102 34.7185 21.6242 38.3417 22.08V29.5441C30.9353 29.9656 27.996 32.4014 24.7996 39.3607Z" fill="#4053A4"/>
<path fill-rule="evenodd" clip-rule="evenodd" d="M15.3706 15.2083C20.9581 12.601 27.637 13.1352 34.2771 17.7862L34.5099 17.6098C29.1164 11.7581 21.7148 10.1506 13.6147 13.4979L15.3706 15.2083Z" fill="#ED2024"/>
</svg>
