<svg width="192" height="47" viewBox="0 0 192 47" fill="none" xmlns="http://www.w3.org/2000/svg">
<path fill-rule="evenodd" clip-rule="evenodd" d="M24.0964 0.769444C36.9692 0.769444 47.4022 10.9487 47.4022 23.5C47.4022 36.0562 36.9692 46.2305 24.0964 46.2305C11.2237 46.2305 0.790605 36.0562 0.790605 23.5C0.790605 10.9438 11.2237 0.769444 24.0964 0.769444ZM24.0964 0C37.4057 0 48.1928 10.5223 48.1928 23.5C48.1928 36.4777 37.4057 47 24.0964 47C10.7871 47 0 36.4777 0 23.5C0 10.5223 10.792 0 24.0964 0Z" fill="white"/>
<path fill-rule="evenodd" clip-rule="evenodd" d="M28.3841 27.5447C29.2281 27.2849 30.0042 27.0007 30.6832 26.687C29.975 27.0742 29.199 27.4172 28.3696 27.7162C28.3744 27.6623 28.3793 27.6035 28.3841 27.5447ZM10.3943 21.541C6.12601 24.7364 10.9181 27.0987 13.9205 27.9759C17.1799 28.9267 21.002 28.9463 24.402 28.4366C24.3923 28.5395 24.3826 28.6376 24.3729 28.7405C20.6867 29.3482 16.6367 29.2208 13.3384 28.2798C10.1178 27.3584 5.3063 24.6727 10.3943 21.541Z" fill="#4053A4"/>
<path fill-rule="evenodd" clip-rule="evenodd" d="M27.2929 33.9445C28.588 33.5819 29.8491 33.1212 31.0568 32.5723C29.8733 33.2192 28.5831 33.7436 27.2444 34.1504L27.2929 33.9445ZM11.7137 28.0781C9.38068 29.8229 9.6911 31.2343 10.9376 32.2929C12.7711 33.8514 15.5115 34.5768 18.1355 34.8169C19.9107 34.9786 21.7199 34.9394 23.5145 34.714L23.466 34.9737C21.0021 35.3119 18.4896 35.2923 16.1663 34.9198C14.1534 34.5964 12.2375 33.9445 10.7824 32.7781C9.25457 31.5578 8.79379 29.8768 11.7137 28.0781Z" fill="#4053A4"/>
<path fill-rule="evenodd" clip-rule="evenodd" d="M28.491 22.1432C29.0488 21.9619 29.5629 21.761 30.0237 21.5502C29.5484 21.81 29.0391 22.0452 28.5007 22.256L28.491 22.1432ZM12.9505 17.2129C9.3613 19.8986 13.3919 21.8884 15.9189 22.6235C18.6254 23.4175 21.7975 23.4371 24.6301 23.0303C24.6301 23.1136 24.635 23.1969 24.635 23.2852C21.555 23.7851 18.1792 23.6674 15.4242 22.8833C12.7226 22.1089 8.6677 19.8496 12.9505 17.2129Z" fill="#4053A4"/>
<path fill-rule="evenodd" clip-rule="evenodd" d="M26.061 38.2558C26.1095 38.246 26.158 38.2362 26.2016 38.2313C26.1531 38.246 26.1046 38.2558 26.0561 38.2656L26.061 38.2558ZM19.4742 14.7852C14.2456 16.3731 10.4623 20.9407 10.4623 26.3318C10.4623 32.801 15.9092 38.0891 22.7676 38.4567L22.7288 38.6478C15.5406 38.6135 9.72021 33.1098 9.72021 26.3318C9.72021 22.0582 12.0338 18.2942 15.5406 16.0839L15.7298 15.9957C16.9423 15.4321 18.1937 15.0302 19.4742 14.7852Z" fill="#4053A4"/>
<path fill-rule="evenodd" clip-rule="evenodd" d="M26.3325 14.9334C28.7528 22.7357 27.7585 30.8713 24.7465 39.4234L23.141 40.6878C25.8863 28.5727 26.1191 21.4369 24.339 14.5707C25.0084 14.6491 25.6729 14.7717 26.3325 14.9334ZM20.7352 4.42578C22.4862 6.68021 23.8685 8.95915 24.9308 11.2675C24.373 11.1646 23.8152 11.0911 23.2574 11.042C22.5202 8.96405 21.6083 6.83705 20.5364 4.53851L20.7352 4.42578Z" fill="#4053A4"/>
<path fill-rule="evenodd" clip-rule="evenodd" d="M24.1399 41.6973C28.2675 37.6491 30.5326 35.5907 36.5664 37.1296V34.7527C29.9651 33.7137 27.1859 36.615 24.1399 41.6973Z" fill="#4053A4"/>
<path fill-rule="evenodd" clip-rule="evenodd" d="M24.7996 39.3607C29.4947 32.9307 32.5698 31.2301 40.0199 31.4408V20.3794C35.5042 19.9677 30.8479 21.1488 27.831 24.5011C30.6054 22.8102 34.7185 21.6242 38.3417 22.08V29.5441C30.9352 29.9656 27.9959 32.4014 24.7996 39.3607Z" fill="#4053A4"/>
<path fill-rule="evenodd" clip-rule="evenodd" d="M15.3706 15.2083C20.9581 12.601 27.637 13.1352 34.2771 17.7862L34.5099 17.6098C29.1164 11.7581 21.7148 10.1506 13.6147 13.4979L15.3706 15.2083Z" fill="#ED2024"/>
<path d="M66.2986 13.8733C65.6535 13.3195 64.9745 12.9029 64.2566 12.6285C63.5388 12.3491 62.787 12.2119 61.9964 12.2119C60.4637 12.2119 59.222 12.7069 58.2616 13.7018C57.3013 14.6918 56.8211 15.9807 56.8211 17.5588C56.8211 19.0879 57.2867 20.3475 58.2228 21.3375C59.1589 22.3275 60.3327 22.8273 61.7587 22.8273C62.5881 22.8273 63.3787 22.6803 64.1257 22.3814C64.8726 22.0873 65.5953 21.6364 66.2841 21.0385V23.6409C65.6729 24.0869 65.0036 24.4153 64.2857 24.6358C63.563 24.8563 62.7821 24.9642 61.943 24.9642C60.8711 24.9642 59.8816 24.7877 58.9746 24.4349C58.0676 24.082 57.2673 23.5576 56.5786 22.8666C55.8947 22.1902 55.3708 21.3914 55.0071 20.4749C54.6384 19.5584 54.459 18.5782 54.459 17.5392C54.459 16.5002 54.6433 15.5299 55.0071 14.6134C55.3757 13.7018 55.9044 12.9029 56.598 12.2119C57.2916 11.516 58.0919 10.9916 58.9892 10.6338C59.8865 10.2761 60.8614 10.0996 61.9042 10.0996C62.7288 10.0996 63.5097 10.2221 64.2566 10.4623C65.0036 10.7024 65.7263 11.07 66.4296 11.5601L66.2986 13.8733Z" fill="#4053A4"/>
<path d="M69.1216 24.5826V10.4336H71.3964V15.6531H78.2839V10.4336H80.5587V24.5826H78.2839V17.7115H71.3964V24.5826H69.1216Z" fill="#4053A4"/>
<path d="M85.9083 18.2565V24.5885H83.7742V10.4395H86.9511C87.8824 10.4395 88.6051 10.5032 89.1192 10.6208C89.6334 10.7433 90.0699 10.9443 90.4337 11.2285C90.8653 11.5716 91.2 12.0127 91.4377 12.5518C91.6753 13.0909 91.7918 13.6839 91.7918 14.3308C91.7918 15.4629 91.5201 16.35 90.9769 16.992C90.4337 17.634 89.6334 18.0163 88.576 18.1486L93.3972 24.5836H90.8265L86.1702 18.2515H85.9083V18.2565ZM86.0538 16.4676H86.4661C87.669 16.4676 88.4693 16.3255 88.867 16.0412C89.2599 15.757 89.4587 15.2571 89.4587 14.5317C89.4587 13.7525 89.2453 13.2036 88.8234 12.885C88.4014 12.5665 87.6156 12.4047 86.4661 12.4047H86.0538V16.4676Z" fill="#4053A4"/>
<path d="M94.7847 24.5826V10.4336H97.0595V24.5826H94.7847Z" fill="#4053A4"/>
<path d="M99.5281 21.7559L101.347 20.9032C101.517 21.5354 101.837 22.0157 102.293 22.3489C102.754 22.6822 103.34 22.8488 104.053 22.8488C104.728 22.8488 105.266 22.6577 105.664 22.2803C106.061 21.898 106.26 21.3933 106.26 20.7512C106.26 19.9181 105.576 19.178 104.213 18.5262C104.024 18.4282 103.874 18.3596 103.772 18.3155C102.23 17.5558 101.201 16.8697 100.687 16.2522C100.173 15.6347 99.9161 14.8848 99.9161 13.9977C99.9161 12.846 100.304 11.9099 101.08 11.1944C101.856 10.4789 102.87 10.1211 104.126 10.1211C105.159 10.1211 106.023 10.322 106.716 10.7239C107.41 11.1258 107.895 11.7041 108.162 12.4588L106.382 13.3851C106.1 12.9391 105.795 12.6157 105.46 12.4098C105.125 12.204 104.742 12.1011 104.306 12.1011C103.695 12.1011 103.209 12.2628 102.846 12.5863C102.487 12.9097 102.307 13.341 102.307 13.8801C102.307 14.7329 103.098 15.5219 104.679 16.2571C104.8 16.3159 104.897 16.36 104.965 16.3943C106.348 17.0363 107.298 17.6685 107.817 18.2861C108.336 18.9036 108.593 19.6681 108.593 20.5895C108.593 21.9275 108.176 22.9959 107.342 23.7849C106.508 24.574 105.378 24.9709 103.956 24.9709C102.763 24.9709 101.788 24.6916 101.027 24.1378C100.265 23.5791 99.7657 22.7851 99.5281 21.7559Z" fill="#4053A4"/>
<path d="M115.607 12.39V24.5885H113.333V12.39H109.612V10.4395H119.313V12.39H115.607Z" fill="#4053A4"/>
<path d="M126.962 24.5826V10.4336H134.776V12.3842H129.237V15.9128H134.776V17.932H129.237V24.5826H126.962Z" fill="#4053A4"/>
<path d="M146.494 24.5837L144.908 20.9423H139.359L137.734 24.5837H135.343L142.124 9.87109L148.895 24.5837H146.494ZM140.203 19.0261H144.108L142.672 15.7963C142.589 15.5905 142.502 15.3553 142.415 15.0857C142.327 14.8161 142.235 14.5221 142.148 14.1937C142.07 14.5025 141.988 14.7916 141.906 15.0563C141.818 15.3258 141.731 15.5709 141.644 15.7963L140.203 19.0261Z" fill="#4053A4"/>
<path d="M161.637 17.599C161.612 17.4912 161.569 17.1873 161.511 16.6923C161.462 16.2807 161.413 15.9376 161.375 15.6681C161.316 15.9915 161.234 16.3101 161.132 16.6335C161.025 16.957 160.895 17.2854 160.734 17.6186L157.072 25.1563L153.41 17.4618C153.255 17.1481 153.124 16.8394 153.013 16.5453C152.901 16.2513 152.804 15.9572 152.722 15.6681C152.717 15.9621 152.693 16.2758 152.649 16.5992C152.605 16.9227 152.547 17.2658 152.465 17.6186L150.961 24.5878H148.866L152.174 9.84083L156.306 18.7703C156.369 18.9125 156.466 19.1477 156.597 19.4761C156.728 19.8044 156.883 20.2112 157.072 20.6915C157.208 20.2847 157.417 19.7701 157.703 19.1428C157.781 18.9762 157.839 18.8488 157.873 18.7556L161.908 9.83594L165.294 24.5829H163.179L161.637 17.599Z" fill="#4053A4"/>
<path d="M167.156 24.5826V10.4336H169.431V24.5826H167.156Z" fill="#4053A4"/>
<path d="M172.705 24.5826V10.4336H174.98V22.5242H180.068V24.5826H172.705Z" fill="#4053A4"/>
<path d="M184.928 24.5826V18.1085L180.214 10.4336H182.605L185.539 15.2365C185.607 15.359 185.699 15.5208 185.801 15.7217C185.908 15.9226 186.015 16.1383 186.121 16.3686C186.209 16.1432 186.306 15.9324 186.403 15.7315C186.5 15.5306 186.606 15.3492 186.713 15.1826L189.725 10.4385H192L187.179 18.1134V24.5875H184.928V24.5826Z" fill="#4053A4"/>
<path d="M81.5096 32.5079C81.495 32.4393 81.4708 32.2531 81.432 31.9492C81.4029 31.6944 81.3738 31.4836 81.3495 31.317C81.3156 31.5179 81.2622 31.714 81.1992 31.91C81.1361 32.1109 81.0537 32.3119 80.9567 32.5177L78.7012 37.1638L76.4458 32.4246C76.3537 32.2286 76.2712 32.0423 76.2033 31.861C76.1354 31.6797 76.0724 31.4983 76.0239 31.317C76.019 31.4983 76.0045 31.6895 75.9802 31.8904C75.956 32.0913 75.9172 32.3021 75.8638 32.5177L74.9374 36.8109H73.6472L75.6843 27.7246L78.2308 33.2235C78.2696 33.3117 78.3278 33.4538 78.4102 33.6596C78.4927 33.8606 78.5897 34.1105 78.7012 34.4095C78.7837 34.1595 78.9147 33.841 79.0893 33.4587C79.1378 33.3558 79.1717 33.2774 79.196 33.2186L81.6842 27.7246L83.7698 36.8109H82.47L81.5096 32.5079Z" fill="#4053A4"/>
<path d="M91.4287 36.8115V28.0977H92.8304V36.8115H91.4287Z" fill="#4053A4"/>
<path d="M101.362 36.8099V27.748L106.843 33.0754C106.993 33.2273 107.144 33.389 107.299 33.5557C107.454 33.7272 107.614 33.9183 107.784 34.134V28.0911H109.079V37.148L103.487 31.7227C103.336 31.5757 103.191 31.4189 103.055 31.2571C102.914 31.0954 102.783 30.9239 102.657 30.7474V36.8099H101.362Z" fill="#4053A4"/>
<path d="M117.591 36.8115V28.0977H118.993V36.8115H117.591Z" fill="#4053A4"/>
<path d="M127.03 35.0656L128.15 34.5412C128.257 34.9283 128.451 35.2273 128.732 35.4331C129.014 35.639 129.378 35.7419 129.819 35.7419C130.236 35.7419 130.566 35.6243 130.813 35.389C131.061 35.1538 131.182 34.8401 131.182 34.4481C131.182 33.9335 130.76 33.4777 129.921 33.0807C129.804 33.0219 129.712 32.9778 129.649 32.9484C128.699 32.4779 128.063 32.0564 127.748 31.679C127.433 31.3016 127.273 30.8361 127.273 30.2871C127.273 29.5765 127.51 29.0031 127.99 28.562C128.466 28.1209 129.091 27.9004 129.867 27.9004C130.503 27.9004 131.036 28.0229 131.463 28.2729C131.89 28.5228 132.186 28.8757 132.351 29.3413L131.255 29.9147C131.08 29.6402 130.891 29.4393 130.687 29.3119C130.483 29.1844 130.246 29.1207 129.979 29.1207C129.601 29.1207 129.305 29.2187 129.082 29.4197C128.859 29.6206 128.747 29.8853 128.747 30.2185C128.747 30.7429 129.232 31.233 130.207 31.6839C130.28 31.7182 130.338 31.7476 130.382 31.7672C131.235 32.1642 131.817 32.5514 132.137 32.9337C132.458 33.311 132.613 33.7864 132.613 34.3549C132.613 35.1783 132.356 35.835 131.842 36.3202C131.327 36.8054 130.634 37.0504 129.756 37.0504C129.024 37.0504 128.417 36.8789 127.952 36.5358C127.486 36.1879 127.176 35.7027 127.03 35.0656Z" fill="#4053A4"/>
<path d="M143.453 29.2984V36.8115H142.051V29.2984H139.757V28.0977H145.733V29.2984H143.453Z" fill="#4053A4"/>
<path d="M154.633 32.9104V36.8115H153.319V28.0977H155.274C155.846 28.0977 156.292 28.1369 156.607 28.2104C156.923 28.2839 157.194 28.4113 157.417 28.5878C157.684 28.7985 157.893 29.068 158.038 29.4013C158.184 29.7346 158.256 30.1022 158.256 30.4991C158.256 31.2 158.092 31.744 157.757 32.1409C157.422 32.5379 156.932 32.7732 156.278 32.8516L159.246 36.8164H157.66L154.789 32.9153H154.633V32.9104ZM154.725 31.8077H154.978C155.72 31.8077 156.214 31.7195 156.457 31.5479C156.7 31.3715 156.821 31.0627 156.821 30.6167C156.821 30.1365 156.69 29.7983 156.428 29.6022C156.166 29.4062 155.681 29.3082 154.978 29.3082H154.725V31.8077Z" fill="#4053A4"/>
<path d="M168.452 36.8106V32.8212L165.547 28.0918H167.021L168.83 31.052C168.874 31.1255 168.927 31.2284 168.99 31.3509C169.053 31.4734 169.121 31.6058 169.189 31.7479C169.243 31.6107 169.301 31.4783 169.364 31.3558C169.427 31.2333 169.49 31.1206 169.553 31.0177L171.411 28.0967H172.812L169.844 32.8261V36.8155H168.452V36.8106Z" fill="#4053A4"/>
</svg>
