<svg width="157" height="39" viewBox="0 0 157 39" fill="none" xmlns="http://www.w3.org/2000/svg">
<path fill-rule="evenodd" clip-rule="evenodd" d="M19.7038 0.622683C30.23 0.622683 38.7612 8.86039 38.7612 19.0177C38.7612 29.179 30.23 37.4127 19.7038 37.4127C9.17768 37.4127 0.646484 29.179 0.646484 19.0177C0.646484 8.85642 9.17768 0.622683 19.7038 0.622683ZM19.7038 0C30.587 0 39.4077 8.51533 39.4077 19.0177C39.4077 29.5201 30.587 38.0354 19.7038 38.0354C8.82072 38.0354 0 29.5201 0 19.0177C0 8.51533 8.82469 0 19.7038 0Z" fill="white"/>
<path fill-rule="evenodd" clip-rule="evenodd" d="M23.21 22.2902C23.9001 22.08 24.5347 21.8499 25.0899 21.5961C24.5109 21.9094 23.8763 22.187 23.1981 22.429C23.2021 22.3854 23.206 22.3378 23.21 22.2902ZM8.49953 17.4316C5.00932 20.0176 8.92788 21.9292 11.3829 22.6392C14.0482 23.4086 17.1735 23.4245 19.9538 23.012C19.9458 23.0953 19.9379 23.1746 19.93 23.2579C16.9157 23.7497 13.604 23.6466 10.907 22.8851C8.27346 22.1395 4.33904 19.966 8.49953 17.4316Z" fill="white"/>
<path fill-rule="evenodd" clip-rule="evenodd" d="M22.3178 27.4697C23.3768 27.1762 24.408 26.8033 25.3956 26.3591C24.4278 26.8827 23.3728 27.307 22.2782 27.6362L22.3178 27.4697ZM9.57854 22.7222C7.67082 24.1341 7.92465 25.2764 8.94395 26.133C10.4432 27.3943 12.684 27.9813 14.8297 28.1756C16.2813 28.3065 17.7607 28.2748 19.2282 28.0923L19.1885 28.3025C17.1737 28.5762 15.1192 28.5603 13.2195 28.2589C11.5735 27.9971 10.0069 27.4696 8.81704 26.5257C7.5677 25.5381 7.19092 24.1777 9.57854 22.7222Z" fill="white"/>
<path fill-rule="evenodd" clip-rule="evenodd" d="M23.2973 17.9196C23.7534 17.7729 24.1738 17.6103 24.5506 17.4397C24.1619 17.6499 23.7454 17.8403 23.3052 18.0109L23.2973 17.9196ZM10.5897 13.9297C7.65475 16.1031 10.9506 17.7134 13.017 18.3083C15.2301 18.9508 17.824 18.9667 20.1402 18.6375C20.1402 18.7049 20.1442 18.7724 20.1442 18.8438C17.6256 19.2483 14.8652 19.1531 12.6124 18.5185C10.4033 17.8919 7.0876 16.0635 10.5897 13.9297Z" fill="white"/>
<path fill-rule="evenodd" clip-rule="evenodd" d="M21.3102 30.9597C21.3499 30.9518 21.3895 30.9439 21.4252 30.9399C21.3856 30.9518 21.3459 30.9597 21.3062 30.9676L21.3102 30.9597ZM15.9242 11.9658C11.6487 13.2509 8.55506 16.9473 8.55506 21.3101C8.55506 26.5454 13.0091 30.8249 18.6172 31.1223L18.5855 31.277C12.7076 31.2492 7.94824 26.7953 7.94824 21.3101C7.94824 17.8516 9.8401 14.8056 12.7076 13.0169L12.8623 12.9455C13.8538 12.4894 14.8771 12.1641 15.9242 11.9658Z" fill="white"/>
<path fill-rule="evenodd" clip-rule="evenodd" d="M21.5323 12.085C23.5114 18.3991 22.6983 24.9829 20.2353 31.9038L18.9225 32.9271C21.1674 23.1228 21.3578 17.3481 19.9022 11.7915C20.4495 11.8549 20.9929 11.9541 21.5323 12.085ZM16.9553 3.58154C18.3871 5.40597 19.5175 7.25023 20.3861 9.11829C19.9299 9.035 19.4738 8.97551 19.0177 8.93585C18.4149 7.2542 17.6692 5.53289 16.7927 3.67277L16.9553 3.58154Z" fill="white"/>
<path fill-rule="evenodd" clip-rule="evenodd" d="M19.7395 33.7443C23.1147 30.4683 24.9669 28.8025 29.9008 30.0479V28.1243C24.5028 27.2835 22.2302 29.6314 19.7395 33.7443Z" fill="white"/>
<path fill-rule="evenodd" clip-rule="evenodd" d="M20.2788 31.8522C24.118 26.6487 26.6326 25.2724 32.7246 25.4429V16.4913C29.0321 16.1582 25.2246 17.114 22.7577 19.8269C25.0263 18.4586 28.3896 17.4987 31.3523 17.8676V23.908C25.296 24.2491 22.8925 26.2203 20.2788 31.8522Z" fill="white"/>
<path fill-rule="evenodd" clip-rule="evenodd" d="M12.5686 12.3071C17.1376 10.1971 22.599 10.6294 28.0286 14.3933L28.219 14.2505C23.8086 9.51489 17.7563 8.214 11.1328 10.9229L12.5686 12.3071Z" fill="#ED2024"/>
<path d="M54.2131 11.2283C53.6856 10.7801 53.1303 10.443 52.5434 10.2209C51.9564 9.99478 51.3416 9.88373 50.6951 9.88373C49.4418 9.88373 48.4265 10.2843 47.6412 11.0894C46.8559 11.8906 46.4633 12.9337 46.4633 14.2108C46.4633 15.4482 46.844 16.4675 47.6095 17.2687C48.3749 18.0699 49.3347 18.4744 50.5008 18.4744C51.179 18.4744 51.8255 18.3554 52.4363 18.1135C53.0471 17.8755 53.638 17.5106 54.2012 17.0268V19.1328C53.7015 19.4937 53.1541 19.7594 52.5671 19.9379C51.9762 20.1164 51.3376 20.2037 50.6515 20.2037C49.775 20.2037 48.9659 20.0609 48.2242 19.7753C47.4826 19.4897 46.8281 19.0654 46.2649 18.5061C45.7057 17.9588 45.2774 17.3123 44.9799 16.5707C44.6785 15.829 44.5317 15.0358 44.5317 14.1949C44.5317 13.3541 44.6825 12.5688 44.9799 11.8272C45.2813 11.0894 45.7137 10.443 46.2808 9.88373C46.848 9.32053 47.5024 8.89617 48.2361 8.60664C48.9699 8.31711 49.7671 8.17432 50.6198 8.17432C51.294 8.17432 51.9326 8.27348 52.5434 8.46782C53.1541 8.66216 53.7451 8.95962 54.3202 9.35623L54.2131 11.2283Z" fill="white"/>
<path d="M56.5215 19.8946V8.44434H58.3816V12.6683H64.0136V8.44434H65.8737V19.8946H64.0136V14.3341H58.3816V19.8946H56.5215Z" fill="white"/>
<path d="M70.2483 14.7747V19.899H68.5032V8.44873H71.101C71.8625 8.44873 72.4535 8.50029 72.8739 8.59548C73.2943 8.69463 73.6512 8.85725 73.9487 9.08729C74.3017 9.36492 74.5753 9.72186 74.7697 10.1581C74.964 10.5944 75.0592 11.0743 75.0592 11.5979C75.0592 12.514 74.8371 13.2319 74.3929 13.7515C73.9487 14.271 73.2943 14.5804 72.4297 14.6875L76.372 19.895H74.2699L70.4625 14.7708H70.2483V14.7747ZM70.3673 13.3271H70.7044C71.688 13.3271 72.3424 13.2121 72.6676 12.982C72.9889 12.752 73.1515 12.3475 73.1515 11.7605C73.1515 11.1299 72.977 10.6856 72.6319 10.4278C72.2869 10.17 71.6444 10.0392 70.7044 10.0392H70.3673V13.3271Z" fill="white"/>
<path d="M77.5063 19.8946V8.44434H79.3665V19.8946H77.5063Z" fill="white"/>
<path d="M81.385 17.6066L82.8723 16.9164C83.0111 17.4281 83.2729 17.8168 83.6457 18.0865C84.0225 18.3562 84.5024 18.491 85.0854 18.491C85.6367 18.491 86.077 18.3363 86.4022 18.0309C86.7274 17.7216 86.89 17.3131 86.89 16.7935C86.89 16.1193 86.3308 15.5204 85.2163 14.9929C85.0616 14.9135 84.9387 14.858 84.8554 14.8223C83.5942 14.2076 82.7533 13.6523 82.3329 13.1526C81.9125 12.6528 81.7023 12.046 81.7023 11.3281C81.7023 10.3961 82.0196 9.63856 82.6542 9.05951C83.2888 8.48045 84.1177 8.19092 85.1449 8.19092C85.9897 8.19092 86.6957 8.35353 87.2629 8.67876C87.83 9.00398 88.2266 9.47198 88.4448 10.0828L86.9892 10.8324C86.7592 10.4715 86.5093 10.2097 86.2356 10.0431C85.962 9.87654 85.6486 9.79325 85.2917 9.79325C84.7919 9.79325 84.3953 9.92413 84.0979 10.1859C83.8044 10.4477 83.6576 10.7967 83.6576 11.233C83.6576 11.9231 84.3041 12.5616 85.5971 13.1565C85.6962 13.2041 85.7756 13.2398 85.8311 13.2676C86.9614 13.7872 87.7388 14.2988 88.1632 14.7985C88.5875 15.2983 88.7978 15.917 88.7978 16.6626C88.7978 17.7454 88.4567 18.61 87.7745 19.2485C87.0923 19.8871 86.1682 20.2084 85.0061 20.2084C84.0304 20.2084 83.2332 19.9823 82.6105 19.5341C81.9879 19.082 81.5794 18.4394 81.385 17.6066Z" fill="white"/>
<path d="M94.5333 10.0273V19.899H92.6732V10.0273H89.6311V8.44873H97.5634V10.0273H94.5333Z" fill="white"/>
<path d="M103.818 19.8946V8.44434H110.207V10.0229H105.678V12.8785H110.207V14.5125H105.678V19.8946H103.818Z" fill="white"/>
<path d="M119.79 19.8952L118.493 16.9483H113.955L112.627 19.8952H110.671L116.216 7.98877L121.753 19.8952H119.79ZM114.645 15.3975H117.838L116.664 12.7839C116.597 12.6173 116.525 12.4269 116.454 12.2088C116.383 11.9906 116.307 11.7526 116.236 11.4869C116.172 11.7368 116.105 11.9708 116.038 12.185C115.966 12.4031 115.895 12.6014 115.823 12.7839L114.645 15.3975Z" fill="white"/>
<path d="M132.172 14.2428C132.152 14.1556 132.116 13.9097 132.069 13.5091C132.029 13.1759 131.989 12.8983 131.958 12.6802C131.91 12.9419 131.843 13.1997 131.759 13.4615C131.672 13.7233 131.565 13.989 131.434 14.2587L128.44 20.3586L125.445 14.1318C125.318 13.8779 125.211 13.6281 125.12 13.3901C125.029 13.1521 124.95 12.9142 124.882 12.6802C124.878 12.9181 124.858 13.172 124.823 13.4337C124.787 13.6955 124.739 13.9731 124.672 14.2587L123.442 19.8986H121.729L124.434 7.96441L127.813 15.1907C127.865 15.3058 127.944 15.4961 128.051 15.7619C128.158 16.0276 128.285 16.3568 128.44 16.7455C128.551 16.4163 128.721 15.9998 128.955 15.4922C129.019 15.3573 129.066 15.2542 129.094 15.1788L132.394 7.96045L135.162 19.8946H133.433L132.172 14.2428Z" fill="white"/>
<path d="M136.685 19.8946V8.44434H138.545V19.8946H136.685Z" fill="white"/>
<path d="M141.223 19.8946V8.44434H143.083V18.2288H147.243V19.8946H141.223Z" fill="white"/>
<path d="M151.217 19.8946V14.6553L147.362 8.44434H149.318L151.717 12.3312C151.773 12.4303 151.848 12.5612 151.931 12.7238C152.019 12.8864 152.106 13.0609 152.193 13.2473C152.264 13.0649 152.344 12.8944 152.423 12.7317C152.502 12.5691 152.59 12.4224 152.677 12.2875L155.14 8.44829H157L153.058 14.6593V19.8986H151.217V19.8946Z" fill="white"/>
<path d="M66.6513 26.308C66.6394 26.2524 66.6196 26.1017 66.5878 25.8558C66.564 25.6496 66.5402 25.479 66.5204 25.3442C66.4927 25.5068 66.449 25.6655 66.3975 25.8241C66.3459 25.9867 66.2785 26.1493 66.1992 26.3159L64.3549 30.0758L62.5106 26.2406C62.4353 26.0819 62.3679 25.9312 62.3123 25.7844C62.2568 25.6377 62.2052 25.4909 62.1656 25.3442C62.1616 25.4909 62.1497 25.6456 62.1299 25.8082C62.1101 25.9709 62.0783 26.1414 62.0347 26.3159L61.2772 29.7902H60.2222L61.8879 22.437L63.9702 26.887C64.0019 26.9584 64.0495 27.0734 64.1169 27.24C64.1844 27.4026 64.2637 27.6049 64.3549 27.8468C64.4223 27.6446 64.5294 27.3868 64.6722 27.0774C64.7118 26.9941 64.7396 26.9307 64.7594 26.8831L66.7941 22.437L68.4995 29.7902H67.4366L66.6513 26.308Z" fill="white"/>
<path d="M74.7622 29.7901V22.7383H75.9084V29.7901H74.7622Z" fill="white"/>
<path d="M82.8848 29.7895V22.4561L87.3665 26.7673C87.4895 26.8902 87.6124 27.0211 87.7393 27.1559C87.8663 27.2948 87.9971 27.4494 88.136 27.6239V22.7337H89.1949V30.0631L84.6219 25.6726C84.499 25.5536 84.38 25.4267 84.269 25.2958C84.1539 25.1649 84.0469 25.0261 83.9437 24.8833V29.7895H82.8848Z" fill="white"/>
<path d="M96.1555 29.7901V22.7383H97.3017V29.7901H96.1555Z" fill="white"/>
<path d="M103.874 28.3786L104.79 27.9542C104.877 28.2675 105.036 28.5095 105.266 28.6761C105.496 28.8426 105.793 28.9259 106.154 28.9259C106.495 28.9259 106.765 28.8307 106.967 28.6404C107.17 28.45 107.269 28.1962 107.269 27.8789C107.269 27.4624 106.924 27.0936 106.238 26.7723C106.142 26.7247 106.067 26.689 106.016 26.6652C105.238 26.2845 104.719 25.9434 104.461 25.638C104.203 25.3326 104.072 24.9558 104.072 24.5116C104.072 23.9365 104.266 23.4725 104.659 23.1155C105.048 22.7586 105.559 22.5801 106.194 22.5801C106.714 22.5801 107.15 22.6792 107.499 22.8815C107.848 23.0838 108.09 23.3693 108.225 23.7461L107.328 24.2102C107.186 23.9881 107.031 23.8255 106.864 23.7223C106.698 23.6192 106.503 23.5676 106.285 23.5676C105.976 23.5676 105.734 23.647 105.551 23.8096C105.369 23.9722 105.278 24.1864 105.278 24.4561C105.278 24.8805 105.674 25.2771 106.472 25.6419C106.531 25.6697 106.579 25.6935 106.614 25.7094C107.312 26.0306 107.788 26.344 108.05 26.6533C108.312 26.9587 108.439 27.3434 108.439 27.8035C108.439 28.4698 108.229 29.0013 107.808 29.3939C107.388 29.7866 106.821 29.9849 106.103 29.9849C105.504 29.9849 105.008 29.8461 104.627 29.5684C104.247 29.2868 103.993 28.8942 103.874 28.3786Z" fill="white"/>
<path d="M117.303 23.71V29.7901H116.157V23.71H114.281V22.7383H119.167V23.71H117.303Z" fill="white"/>
<path d="M126.445 26.633V29.7901H125.37V22.7383H126.969C127.437 22.7383 127.802 22.77 128.059 22.8295C128.317 22.889 128.539 22.9921 128.722 23.1349C128.94 23.3054 129.11 23.5236 129.229 23.7933C129.348 24.063 129.408 24.3604 129.408 24.6817C129.408 25.2489 129.273 25.6891 128.999 26.0104C128.726 26.3316 128.325 26.522 127.79 26.5855L130.217 29.7941H128.92L126.572 26.637H126.445V26.633ZM126.521 25.7407H126.727C127.334 25.7407 127.738 25.6693 127.936 25.5305C128.135 25.3877 128.234 25.1378 128.234 24.7769C128.234 24.3882 128.127 24.1145 127.913 23.9559C127.699 23.7972 127.302 23.7179 126.727 23.7179H126.521V25.7407Z" fill="white"/>
<path d="M137.745 29.7897V26.5612L135.369 22.7339H136.575L138.054 25.1294C138.09 25.1889 138.134 25.2722 138.185 25.3714C138.237 25.4705 138.292 25.5776 138.348 25.6926C138.391 25.5816 138.439 25.4745 138.49 25.3753C138.542 25.2762 138.594 25.185 138.645 25.1017L140.164 22.7378H141.31L138.883 26.5652V29.7936H137.745V29.7897Z" fill="white"/>
</svg>
