<svg width="176" height="176" viewBox="0 0 176 176" fill="none" xmlns="http://www.w3.org/2000/svg">
<circle cx="88" cy="88" r="88" fill="#4053A4"/>
<path d="M46.0503 98V85.3069H53.3294L56.5603 76.3365H46.0503V72.9724H57.771L61 64H36V98H46.0503Z" fill="white"/>
<path d="M72.3627 85.0531H65.6392L69.001 74.0944L72.3627 85.0531ZM88 98L75.4689 64H62.5311L50 98H61.6655L62.8874 94.0235H75.1126L76.3345 98H88Z" fill="white"/>
<path d="M81 74.3461C81 78.5746 84.0005 81 87.3281 81C90.3817 81 93 78.5766 93 75.5849C93 72.6977 90.8723 70.7883 88.254 70.7883C87.653 70.7883 87.1094 70.8907 86.8355 70.9951C87.5447 69.0354 90.0547 66.7666 91.8002 66.0438L87.8166 63C83.5631 65.837 81 69.8085 81 74.3461Z" fill="white"/>
<path d="M50.711 117.923V113.631H49.6104L47.9982 115.239L48.719 116.004L49.434 115.284V117.921H50.711V117.923ZM47.7734 117.923V116.791H46.4016C47.4072 116.116 47.7347 115.633 47.7347 115.047C47.7347 114.185 47.0197 113.568 45.9268 113.568C45.3397 113.568 44.6305 113.767 44.1441 114.296L44.8398 115.158C45.1614 114.882 45.5025 114.714 45.952 114.714C46.2233 114.714 46.4384 114.842 46.4384 115.049C46.4384 115.371 46.2543 115.533 44.3282 116.915V117.925H47.7734V117.923ZM42.0301 116.854C41.6251 116.854 41.443 116.507 41.443 115.779C41.443 115.051 41.6271 114.71 42.0301 114.71C42.4351 114.71 42.6172 115.051 42.6172 115.779C42.6172 116.507 42.4331 116.854 42.0301 116.854ZM42.0301 118C43.2877 118 43.9019 116.945 43.9019 115.781C43.9019 114.617 43.2896 113.568 42.0301 113.568C40.7725 113.568 40.1583 114.617 40.1583 115.781C40.1583 116.945 40.7706 118 42.0301 118ZM39.8192 117.923V116.791H38.4473C39.453 116.116 39.7804 115.633 39.7804 115.047C39.7804 114.185 39.0654 113.568 37.9726 113.568C37.3855 113.568 36.6763 113.767 36.1899 114.296L36.8855 115.158C37.2072 114.882 37.5482 114.714 37.9978 114.714C38.269 114.714 38.4841 114.842 38.4841 115.049C38.4841 115.371 38.3 115.533 36.374 116.915V117.925H39.8192V117.923ZM75 112.107V110.974H73.0778V110.505H74.9554V109.373H73.0778V108.949H75V107.817H71.8028V112.108H75V112.107ZM69.5163 109.623H68.7393V108.947H69.5163C69.7314 108.947 69.9329 109.049 69.9329 109.282C69.9329 109.521 69.7295 109.623 69.5163 109.623ZM71.2351 112.107L70.4697 110.588C70.8049 110.42 71.2273 110.028 71.2273 109.288C71.2273 108.483 70.6964 107.815 69.7101 107.815H67.4604V112.107H68.7374V110.755H69.1985L69.7798 112.107H71.2351ZM64.643 112.183C66.0653 112.183 66.7222 111.404 66.7222 110.337V107.815H65.4258V110.298C65.4258 110.71 65.1604 111.037 64.643 111.037C64.1179 111.037 63.8524 110.71 63.8524 110.298V107.815H62.5561V110.343C62.5581 111.406 63.2207 112.183 64.643 112.183ZM60.9226 112.107V108.947H62.0484V107.815H58.516V108.947H59.6476V112.107H60.9226ZM58.0045 112.107V107.815H56.7275V109.848L55.2607 107.815H53.9469V112.107H55.2239V109.931L56.7779 112.107H58.0045ZM53.3211 112.107V110.974H51.3989V110.505H53.2765V109.373H51.3989V108.949H53.3211V107.817H50.1239V112.108H53.3211V112.107ZM48.285 112.107L49.839 107.815H48.3916L47.4808 110.704L46.5701 107.815H45.1227L46.6767 112.107H48.285ZM42.8827 110.974H42.2762V108.947H42.8885C43.5706 108.947 43.9 109.379 43.9 109.957C43.9 110.499 43.5202 110.974 42.8827 110.974ZM42.8885 112.107C44.21 112.107 45.1963 111.327 45.1963 109.959C45.1963 108.588 44.21 107.817 42.8827 107.817H40.9993V112.108H42.8885V112.107ZM38.7767 110.473H37.9416L38.3582 109.091L38.7767 110.473ZM40.7164 112.107L39.1623 107.815H37.556L36 112.107H37.4475L37.5986 111.606H39.1158L39.267 112.107H40.7164ZM54.3752 106.292V102H53.0982V103.519H51.5868V102H50.3099V106.292H51.5868V104.651H53.0982V106.292H54.3752ZM48.6764 106.292V103.132H49.8022V102H46.2678V103.132H47.3995V106.292H48.6764ZM45.7563 106.292V102H44.4794V106.292H45.7563ZM42.2568 104.659H41.4217L41.8383 103.276L42.2568 104.659ZM44.1984 106.292L42.6444 102H41.038L39.484 106.292H40.9314L41.0826 105.791H42.5998L42.7509 106.292H44.1984ZM37.7323 106.292V104.69H39.6099V103.558H37.7323V103.134H39.6545V102.002H36.4573V106.294H37.7323V106.292Z" fill="white"/>
<path d="M119 97.998V88.8989H108.037C116.07 83.4721 118.696 79.5932 118.696 74.8902C118.696 67.9626 112.987 63 104.246 63C99.5481 63 93.8888 64.6031 90 68.8419L95.5574 75.7695C98.1333 73.5468 100.863 72.2034 104.45 72.2034C106.622 72.2034 108.341 73.238 108.341 74.8922C108.341 77.4768 106.876 78.7691 91.4667 89.8843V98H119V97.998Z" fill="white"/>
<path d="M140 98V64H131.077L118 76.7447L123.846 82.8096L129.641 77.1015V98H140Z" fill="white"/>
</svg>
