<svg width="212" height="161" viewBox="0 0 212 161" fill="none" xmlns="http://www.w3.org/2000/svg">
<path d="M60.0811 72.2215C55.8164 72.2215 51.9198 72.936 49.6062 73.4571C52.2524 65.0243 58.4264 55.8299 65.8958 47.7193C73.6764 39.2708 82.7984 32.0677 90.6515 28.1748L91.5617 27.7236L90.7705 27.0863L58.9996 1.4938L58.6171 1.18566L58.2162 1.46954C23.336 26.1703 1.35 61.2949 1.35 101.909C1.35 138.165 25.4391 159.65 52.6348 159.65C77.8141 159.65 98.9555 138.689 98.9555 113.229C98.9555 88.7648 81.3006 72.2215 60.0811 72.2215ZM171.776 72.2215C167.53 72.2215 163.65 72.9295 161.332 73.45C164.201 65.0115 170.375 55.8201 177.778 47.7174C185.498 39.2679 194.495 32.0665 202.346 28.1748L203.256 27.7236L202.465 27.0863L170.694 1.4938L170.312 1.18566L169.911 1.46954C135.031 26.1703 113.045 61.2949 113.045 101.909C113.045 138.173 137.638 159.65 164.826 159.65C189.513 159.65 210.65 138.684 210.65 113.229C210.65 88.7704 193.497 72.2215 171.776 72.2215Z" stroke="#4053A4" stroke-width="1.3"/>
</svg>
