<svg width="212" height="161" viewBox="0 0 212 161" fill="none" xmlns="http://www.w3.org/2000/svg">
<path d="M151.919 72.2215C156.184 72.2215 160.08 72.936 162.394 73.4571C159.748 65.0243 153.574 55.8299 146.104 47.7193C138.324 39.2708 129.202 32.0677 121.349 28.1748L120.438 27.7236L121.229 27.0863L153 1.4938L153.383 1.18566L153.784 1.46954C188.664 26.1703 210.65 61.2949 210.65 101.909C210.65 138.165 186.561 159.65 159.365 159.65C134.186 159.65 113.045 138.689 113.045 113.229C113.045 88.7648 130.699 72.2215 151.919 72.2215ZM40.2243 72.2215C44.4697 72.2215 48.3502 72.9295 50.6676 73.45C47.7985 65.0115 41.6247 55.8201 34.2218 47.7174C26.502 39.2679 17.5046 32.0665 9.65402 28.1748L8.74376 27.7236L9.53496 27.0863L41.3058 1.4938L41.6884 1.18566L42.0892 1.46954C76.9694 26.1703 98.9555 61.2949 98.9555 101.909C98.9555 138.173 74.362 159.65 47.1742 159.65C22.4868 159.65 1.35001 138.684 1.35001 113.229C1.35001 88.7704 18.503 72.2215 40.2243 72.2215Z" stroke="#4053A4" stroke-width="1.3"/>
</svg>
