<svg width="608" height="634" viewBox="0 0 608 634" fill="none" xmlns="http://www.w3.org/2000/svg">
<path d="M0 20C0 8.95432 8.95431 0 20 0H608V634H20C8.9543 634 0 625.046 0 614V20Z" fill="#627BE5"/>
<path d="M92.0811 115.221C87.8164 115.221 83.9198 115.936 81.6062 116.457C84.2524 108.024 90.4264 98.8299 97.8958 90.7193C105.676 82.2708 114.798 75.0677 122.651 71.1748L123.562 70.7236L122.771 70.0863L90.9996 44.4938L90.6171 44.1857L90.2162 44.4695C55.336 69.1703 33.35 104.295 33.35 144.909C33.35 181.165 57.4391 202.65 84.6348 202.65C109.814 202.65 130.955 181.689 130.955 156.229C130.955 131.765 113.301 115.221 92.0811 115.221ZM203.776 115.221C199.53 115.221 195.65 115.929 193.332 116.45C196.201 108.011 202.375 98.8201 209.778 90.7174C217.498 82.2679 226.495 75.0665 234.346 71.1748L235.256 70.7236L234.465 70.0863L202.694 44.4938L202.312 44.1857L201.911 44.4695C167.031 69.1703 145.045 104.295 145.045 144.909C145.045 181.173 169.638 202.65 196.826 202.65C221.513 202.65 242.65 181.684 242.65 156.229C242.65 131.77 225.497 115.221 203.776 115.221Z" stroke="#4053A4" stroke-width="1.3"/>
<path d="M516.919 518.221C521.184 518.221 525.08 518.936 527.394 519.457C524.748 511.024 518.574 501.83 511.104 493.719C503.324 485.271 494.202 478.068 486.349 474.175L485.438 473.724L486.229 473.086L518 447.494L518.383 447.186L518.784 447.47C553.664 472.17 575.65 507.295 575.65 547.909C575.65 584.165 551.561 605.65 524.365 605.65C499.186 605.65 478.045 584.689 478.045 559.229C478.045 534.765 495.699 518.221 516.919 518.221ZM405.224 518.221C409.47 518.221 413.35 518.929 415.668 519.45C412.799 511.011 406.625 501.82 399.222 493.717C391.502 485.268 382.505 478.066 374.654 474.175L373.744 473.724L374.535 473.086L406.306 447.494L406.688 447.186L407.089 447.47C441.969 472.17 463.955 507.295 463.955 547.909C463.955 584.173 439.362 605.65 412.174 605.65C387.487 605.65 366.35 584.684 366.35 559.229C366.35 534.77 383.503 518.221 405.224 518.221Z" stroke="#4053A4" stroke-width="1.3"/>
<path d="M121 270.868V315H129.364V270.868H144.8V267.4H105.428V270.868H121ZM149.092 315H181.868V311.532H157.728V288.48H177.108V285.012H157.728V270.868H181.868V267.4H149.092V315ZM208.616 286.848C203.788 284.876 194.948 280.864 195.56 275.56C196.036 271.344 201.544 270.324 204.536 270.256C210.044 270.256 217.456 273.452 220.72 278.484L225.616 273.316C220.448 268.964 211.064 266.856 204.468 266.856C196.24 266.924 188.352 270.324 188.012 278.076C187.672 286.168 195.9 291.064 203.312 293.852C210.86 297.184 220.176 299.768 218.68 306.432C217.592 312.076 210.792 312.484 208.752 312.484C202.02 312.552 194.744 309.152 191.14 304.256L186.244 309.492C190.936 313.164 199.64 315.952 207.732 315.952C215.892 315.884 225.82 312.96 226.568 303.848C227.384 293.648 215.484 289.636 208.616 286.848ZM245.113 270.868V315H253.477V270.868H268.913V267.4H229.541V270.868H245.113ZM281.841 267.4H273.273V315H281.841V267.4ZM286.254 267.4L288.09 270.596V315H291.49V276.58L305.09 300.38H309.034L324.13 273.928V315H332.766V267.4H323.926L310.054 291.608L296.182 267.4H286.254ZM337.187 291.2C337.187 305.956 347.387 315.816 362.143 315.816C376.899 315.816 387.099 305.956 387.099 291.2C387.099 276.444 376.899 266.584 362.143 266.584C347.387 266.584 337.187 276.444 337.187 291.2ZM346.163 291.2C346.163 278.416 352.623 269.984 362.143 269.984C371.595 269.984 378.123 278.416 378.123 291.2C378.123 303.984 371.595 312.416 362.143 312.416C352.623 312.416 346.163 303.984 346.163 291.2ZM391.883 269.644V315H395.283V273.86L424.795 310.444V315H428.195V267.4H424.795V296.64L401.131 267.4H390.047L391.883 269.644ZM442.677 267.4H434.109V315H442.677V267.4ZM449.742 315L456.746 298.476H476.806L483.81 315H493.194L472.998 267.4H463.614L464.906 270.46L446.002 315H449.742ZM466.81 274.88L475.31 295.008H458.242L466.81 274.88ZM496.529 315H529.305V311.532H505.165V267.4H496.529V315ZM554.726 286.848C549.898 284.876 541.058 280.864 541.67 275.56C542.146 271.344 547.654 270.324 550.646 270.256C556.154 270.256 563.566 273.452 566.83 278.484L571.726 273.316C566.558 268.964 557.174 266.856 550.578 266.856C542.35 266.924 534.462 270.324 534.122 278.076C533.782 286.168 542.01 291.064 549.422 293.852C556.97 297.184 566.286 299.768 564.79 306.432C563.702 312.076 556.902 312.484 554.862 312.484C548.13 312.552 540.854 309.152 537.25 304.256L532.354 309.492C537.046 313.164 545.75 315.952 553.842 315.952C562.002 315.884 571.93 312.96 572.678 303.848C573.494 293.648 561.594 289.636 554.726 286.848Z" fill="white"/>
<path d="M130.272 359L134.832 342.992H132.624L129.096 356.336L125.424 342.992H123.768L120.096 356.336L116.544 342.992H114.336L118.896 359H121.056L124.584 346.088L128.112 359H130.272ZM146.636 359V350.816C146.636 348.296 145.364 347.12 142.94 347.12C141.188 347.12 139.604 348.128 138.788 349.088V342.992H136.988V359H138.788V350.528C139.484 349.592 140.828 348.728 142.22 348.728C143.78 348.728 144.836 349.328 144.836 351.368V359H146.636ZM159.278 359V351.032C159.278 348.224 157.238 347.12 154.79 347.12C152.894 347.12 151.406 347.744 150.158 349.04L150.998 350.288C152.03 349.184 153.158 348.68 154.55 348.68C156.23 348.68 157.478 349.568 157.478 351.128V353.216C156.542 352.136 155.222 351.632 153.638 351.632C151.67 351.632 149.582 352.856 149.582 355.448C149.582 357.968 151.67 359.288 153.638 359.288C155.198 359.288 156.518 358.736 157.478 357.68V359H159.278ZM154.286 357.992C152.606 357.992 151.43 356.936 151.43 355.472C151.43 353.984 152.606 352.928 154.286 352.928C155.558 352.928 156.782 353.408 157.478 354.368V356.552C156.782 357.512 155.558 357.992 154.286 357.992ZM165.814 359.288C166.87 359.288 167.518 358.976 167.974 358.544L167.446 357.2C167.206 357.464 166.726 357.68 166.222 357.68C165.43 357.68 165.046 357.056 165.046 356.192V348.992H167.398V347.408H165.046V344.24H163.246V347.408H161.326V348.992H163.246V356.576C163.246 358.304 164.11 359.288 165.814 359.288ZM181.84 359.288C184.888 359.288 187 356.936 187 353.192C187 349.424 184.888 347.12 181.84 347.12C180.208 347.12 178.768 347.96 177.928 349.136V347.408H176.128V363.416H177.928V357.248C178.864 358.544 180.256 359.288 181.84 359.288ZM181.384 357.68C179.968 357.68 178.552 356.816 177.928 355.808V350.576C178.552 349.568 179.968 348.728 181.384 348.728C183.712 348.728 185.104 350.624 185.104 353.192C185.104 355.76 183.712 357.68 181.384 357.68ZM191.663 359V350.792C192.191 349.856 193.703 348.944 194.807 348.944C195.095 348.944 195.311 348.968 195.527 349.016V347.168C193.943 347.168 192.599 348.056 191.663 349.28V347.408H189.863V359H191.663ZM203.016 359.288C204.912 359.288 206.472 358.664 207.624 357.512L206.76 356.336C205.848 357.272 204.504 357.8 203.184 357.8C200.688 357.8 199.152 355.976 199.008 353.792H208.392V353.336C208.392 349.856 206.328 347.12 202.824 347.12C199.512 347.12 197.112 349.832 197.112 353.192C197.112 356.816 199.584 359.288 203.016 359.288ZM206.616 352.472H199.008C199.104 350.696 200.328 348.608 202.8 348.608C205.44 348.608 206.592 350.744 206.616 352.472ZM216.372 359L221.196 347.408H219.228L215.388 356.912L211.524 347.408H209.58L214.404 359H216.372ZM223.961 345.752C224.633 345.752 225.185 345.224 225.185 344.552C225.185 343.88 224.633 343.328 223.961 343.328C223.313 343.328 222.761 343.88 222.761 344.552C222.761 345.224 223.313 345.752 223.961 345.752ZM224.873 359V347.408H223.073V359H224.873ZM233.528 359.288C237.056 359.288 239.264 356.552 239.264 353.192C239.264 349.832 237.056 347.12 233.528 347.12C230 347.12 227.792 349.832 227.792 353.192C227.792 356.552 230 359.288 233.528 359.288ZM233.528 357.68C231.056 357.68 229.664 355.568 229.664 353.192C229.664 350.84 231.056 348.728 233.528 348.728C236 348.728 237.368 350.84 237.368 353.192C237.368 355.568 236 357.68 233.528 357.68ZM251.822 359V347.408H250.022V355.928C249.35 356.864 248.006 357.68 246.59 357.68C245.03 357.68 243.998 357.08 243.998 355.04V347.408H242.198V355.592C242.198 358.112 243.47 359.288 245.894 359.288C247.622 359.288 249.134 358.376 250.022 357.368V359H251.822ZM259.089 359.288C262.089 359.288 263.649 357.728 263.649 355.784C263.649 351.272 256.473 352.952 256.473 350.408C256.473 349.376 257.457 348.584 259.041 348.584C260.529 348.584 261.801 349.208 262.497 350.048L263.337 348.8C262.401 347.864 261.009 347.12 259.041 347.12C256.281 347.12 254.721 348.656 254.721 350.456C254.721 354.752 261.897 353.024 261.897 355.832C261.897 356.984 260.937 357.824 259.161 357.824C257.577 357.824 256.113 357.056 255.345 356.168L254.409 357.464C255.585 358.712 257.193 359.288 259.089 359.288ZM281.809 359V351.032C281.809 348.224 279.769 347.12 277.321 347.12C275.425 347.12 273.937 347.744 272.689 349.04L273.529 350.288C274.561 349.184 275.689 348.68 277.081 348.68C278.761 348.68 280.009 349.568 280.009 351.128V353.216C279.073 352.136 277.753 351.632 276.169 351.632C274.201 351.632 272.113 352.856 272.113 355.448C272.113 357.968 274.201 359.288 276.169 359.288C277.729 359.288 279.049 358.736 280.009 357.68V359H281.809ZM276.817 357.992C275.137 357.992 273.961 356.936 273.961 355.472C273.961 353.984 275.137 352.928 276.817 352.928C278.089 352.928 279.313 353.408 280.009 354.368V356.552C279.313 357.512 278.089 357.992 276.817 357.992ZM288.345 359.288C289.401 359.288 290.049 358.976 290.505 358.544L289.977 357.2C289.737 357.464 289.257 357.68 288.753 357.68C287.961 357.68 287.577 357.056 287.577 356.192V348.992H289.929V347.408H287.577V344.24H285.777V347.408H283.857V348.992H285.777V356.576C285.777 358.304 286.641 359.288 288.345 359.288ZM295.4 359.288C296.456 359.288 297.104 358.976 297.56 358.544L297.032 357.2C296.792 357.464 296.312 357.68 295.808 357.68C295.016 357.68 294.632 357.056 294.632 356.192V348.992H296.984V347.408H294.632V344.24H292.832V347.408H290.912V348.992H292.832V356.576C292.832 358.304 293.696 359.288 295.4 359.288ZM304.759 359.288C306.655 359.288 308.215 358.664 309.367 357.512L308.503 356.336C307.591 357.272 306.247 357.8 304.927 357.8C302.431 357.8 300.895 355.976 300.751 353.792H310.135V353.336C310.135 349.856 308.071 347.12 304.567 347.12C301.255 347.12 298.855 349.832 298.855 353.192C298.855 356.816 301.327 359.288 304.759 359.288ZM308.359 352.472H300.751C300.847 350.696 302.071 348.608 304.543 348.608C307.183 348.608 308.335 350.744 308.359 352.472ZM322.674 359V350.864C322.674 348.344 321.402 347.12 318.978 347.12C317.25 347.12 315.666 348.128 314.85 349.088V347.408H313.05V359H314.85V350.528C315.522 349.592 316.866 348.728 318.282 348.728C319.842 348.728 320.874 349.376 320.874 351.416V359H322.674ZM336.469 359V342.992H334.669V349.16C333.733 347.888 332.317 347.12 330.757 347.12C327.709 347.12 325.597 349.52 325.597 353.216C325.597 356.984 327.733 359.288 330.757 359.288C332.389 359.288 333.805 358.448 334.669 357.272V359H336.469ZM331.189 357.68C328.861 357.68 327.469 355.784 327.469 353.216C327.469 350.648 328.861 348.728 331.189 348.728C332.629 348.728 334.021 349.592 334.669 350.6V355.856C334.021 356.864 332.629 357.68 331.189 357.68ZM345.305 359.288C347.201 359.288 348.761 358.664 349.913 357.512L349.049 356.336C348.137 357.272 346.793 357.8 345.473 357.8C342.977 357.8 341.441 355.976 341.297 353.792H350.681V353.336C350.681 349.856 348.617 347.12 345.113 347.12C341.801 347.12 339.401 349.832 339.401 353.192C339.401 356.816 341.873 359.288 345.305 359.288ZM348.905 352.472H341.297C341.393 350.696 342.617 348.608 345.089 348.608C347.729 348.608 348.881 350.744 348.905 352.472ZM358.829 359.288C360.725 359.288 362.285 358.664 363.437 357.512L362.573 356.336C361.661 357.272 360.317 357.8 358.997 357.8C356.501 357.8 354.965 355.976 354.821 353.792H364.205V353.336C364.205 349.856 362.141 347.12 358.637 347.12C355.325 347.12 352.925 349.832 352.925 353.192C352.925 356.816 355.397 359.288 358.829 359.288ZM362.429 352.472H354.821C354.917 350.696 356.141 348.608 358.613 348.608C361.253 348.608 362.405 350.744 362.429 352.472ZM370.792 359.288C373.792 359.288 375.352 357.728 375.352 355.784C375.352 351.272 368.176 352.952 368.176 350.408C368.176 349.376 369.16 348.584 370.744 348.584C372.232 348.584 373.504 349.208 374.2 350.048L375.04 348.8C374.104 347.864 372.712 347.12 370.744 347.12C367.984 347.12 366.424 348.656 366.424 350.456C366.424 354.752 373.6 353.024 373.6 355.832C373.6 356.984 372.64 357.824 370.864 357.824C369.28 357.824 367.816 357.056 367.048 356.168L366.112 357.464C367.288 358.712 368.896 359.288 370.792 359.288ZM394.112 359V350.816C394.112 348.296 392.84 347.12 390.416 347.12C388.664 347.12 387.08 348.128 386.264 349.088V342.992H384.464V359H386.264V350.528C386.96 349.592 388.304 348.728 389.696 348.728C391.256 348.728 392.312 349.328 392.312 351.368V359H394.112ZM406.754 359V351.032C406.754 348.224 404.714 347.12 402.266 347.12C400.37 347.12 398.882 347.744 397.634 349.04L398.474 350.288C399.506 349.184 400.634 348.68 402.026 348.68C403.706 348.68 404.954 349.568 404.954 351.128V353.216C404.018 352.136 402.698 351.632 401.114 351.632C399.146 351.632 397.058 352.856 397.058 355.448C397.058 357.968 399.146 359.288 401.114 359.288C402.674 359.288 403.994 358.736 404.954 357.68V359H406.754ZM401.762 357.992C400.082 357.992 398.906 356.936 398.906 355.472C398.906 353.984 400.082 352.928 401.762 352.928C403.034 352.928 404.258 353.408 404.954 354.368V356.552C404.258 357.512 403.034 357.992 401.762 357.992ZM415.427 359L420.251 347.408H418.283L414.443 356.912L410.579 347.408H408.635L413.459 359H415.427ZM427.36 359.288C429.256 359.288 430.816 358.664 431.968 357.512L431.104 356.336C430.192 357.272 428.848 357.8 427.528 357.8C425.032 357.8 423.496 355.976 423.352 353.792H432.736V353.336C432.736 349.856 430.672 347.12 427.168 347.12C423.856 347.12 421.456 349.832 421.456 353.192C421.456 356.816 423.928 359.288 427.36 359.288ZM430.96 352.472H423.352C423.448 350.696 424.672 348.608 427.144 348.608C429.784 348.608 430.936 350.744 430.96 352.472ZM447.071 359.288C448.967 359.288 450.527 358.664 451.679 357.512L450.815 356.336C449.903 357.272 448.559 357.8 447.239 357.8C444.743 357.8 443.207 355.976 443.063 353.792H452.447V353.336C452.447 349.856 450.383 347.12 446.879 347.12C443.567 347.12 441.167 349.832 441.167 353.192C441.167 356.816 443.639 359.288 447.071 359.288ZM450.671 352.472H443.063C443.159 350.696 444.383 348.608 446.855 348.608C449.495 348.608 450.647 350.744 450.671 352.472ZM464.963 359L460.499 353.048L464.699 347.408H462.611L459.395 351.824L456.179 347.408H454.091L458.291 353.048L453.851 359H455.915L459.395 354.248L462.875 359H464.963ZM472.746 359.288C475.794 359.288 477.906 356.936 477.906 353.192C477.906 349.424 475.794 347.12 472.746 347.12C471.114 347.12 469.674 347.96 468.834 349.136V347.408H467.034V363.416H468.834V357.248C469.77 358.544 471.162 359.288 472.746 359.288ZM472.29 357.68C470.874 357.68 469.458 356.816 468.834 355.808V350.576C469.458 349.568 470.874 348.728 472.29 348.728C474.618 348.728 476.01 350.624 476.01 353.192C476.01 355.76 474.618 357.68 472.29 357.68ZM486.001 359.288C487.897 359.288 489.457 358.664 490.609 357.512L489.745 356.336C488.833 357.272 487.489 357.8 486.169 357.8C483.673 357.8 482.137 355.976 481.993 353.792H491.377V353.336C491.377 349.856 489.313 347.12 485.809 347.12C482.497 347.12 480.097 349.832 480.097 353.192C480.097 356.816 482.569 359.288 486.001 359.288ZM489.601 352.472H481.993C482.089 350.696 483.313 348.608 485.785 348.608C488.425 348.608 489.577 350.744 489.601 352.472ZM496.092 359V350.792C496.62 349.856 498.132 348.944 499.236 348.944C499.524 348.944 499.74 348.968 499.956 349.016V347.168C498.372 347.168 497.028 348.056 496.092 349.28V347.408H494.292V359H496.092ZM503.102 345.752C503.774 345.752 504.326 345.224 504.326 344.552C504.326 343.88 503.774 343.328 503.102 343.328C502.454 343.328 501.902 343.88 501.902 344.552C501.902 345.224 502.454 345.752 503.102 345.752ZM504.014 359V347.408H502.214V359H504.014ZM512.837 359.288C514.733 359.288 516.293 358.664 517.445 357.512L516.581 356.336C515.669 357.272 514.325 357.8 513.005 357.8C510.509 357.8 508.973 355.976 508.829 353.792H518.213V353.336C518.213 349.856 516.149 347.12 512.645 347.12C509.333 347.12 506.933 349.832 506.933 353.192C506.933 356.816 509.405 359.288 512.837 359.288ZM516.437 352.472H508.829C508.925 350.696 510.149 348.608 512.621 348.608C515.261 348.608 516.413 350.744 516.437 352.472ZM530.752 359V350.864C530.752 348.344 529.48 347.12 527.056 347.12C525.328 347.12 523.744 348.128 522.928 349.088V347.408H521.128V359H522.928V350.528C523.6 349.592 524.944 348.728 526.36 348.728C527.92 348.728 528.952 349.376 528.952 351.416V359H530.752ZM539.459 359.288C541.571 359.288 542.819 358.424 543.707 357.272L542.507 356.168C541.739 357.2 540.755 357.68 539.555 357.68C537.083 357.68 535.547 355.76 535.547 353.192C535.547 350.624 537.083 348.728 539.555 348.728C540.755 348.728 541.739 349.184 542.507 350.24L543.707 349.136C542.819 347.984 541.571 347.12 539.459 347.12C536.003 347.12 533.675 349.76 533.675 353.192C533.675 356.648 536.003 359.288 539.459 359.288ZM551.462 359.288C553.358 359.288 554.918 358.664 556.07 357.512L555.206 356.336C554.294 357.272 552.95 357.8 551.63 357.8C549.134 357.8 547.598 355.976 547.454 353.792H556.838V353.336C556.838 349.856 554.774 347.12 551.27 347.12C547.958 347.12 545.558 349.832 545.558 353.192C545.558 356.816 548.03 359.288 551.462 359.288ZM555.062 352.472H547.454C547.55 350.696 548.774 348.608 551.246 348.608C553.886 348.608 555.038 350.744 555.062 352.472ZM569.953 359V342.992H568.153V349.16C567.217 347.888 565.801 347.12 564.241 347.12C561.193 347.12 559.081 349.52 559.081 353.216C559.081 356.984 561.217 359.288 564.241 359.288C565.873 359.288 567.289 358.448 568.153 357.272V359H569.953ZM564.673 357.68C562.345 357.68 560.953 355.784 560.953 353.216C560.953 350.648 562.345 348.728 564.673 348.728C566.113 348.728 567.505 349.592 568.153 350.6V355.856C567.505 356.864 566.113 357.68 564.673 357.68Z" fill="white"/>
</svg>
